# xmcd
#
# Track frame offsets:
#	150
#	17576
#	45526
#
# Disc length: 878 seconds
#
# Revision: 2
# Processed by: cddbd v1.5.1PL2 Copyright (c) Steve Scherf et al.
# Submitted via: audiograbber 1.83.01
#
DISCID=18036c03
DTITLE=Olaf Henning - Cowboy und Indianer
DYEAR=2006
DGENRE=Schlager
TTITLE0=Cowboy und Indianer - Remix 2006
TTITLE1=Cowboy und Indianer - Remix Short Edit 2006
TTITLE2=Valentine  (Original version)
EXTD=
EXTT0=
EXTT1=
EXTT2=
PLAYORDER=
